<?xml version="1.0" encoding="UTF-8"?>
<svg xmlns="http://www.w3.org/2000/svg" width="183" height="35" viewBox="0 0 183 35" fill="none">
  <g clip-path="url(#clip0_3301_24378)">
    <path d="M53.7765 0.482422H48.0935V34.5631H53.7765V0.482422Z" fill="#E95F3D"></path>
    <path d="M101.927 0.482422L100.143 5.99465H109.078L99.1699 34.5631H114.531L116.315 29.1002H106.551L116.509 0.482422H101.927Z" fill="#E95F3D"></path>
    <path d="M76.3068 34.5631H70.9635L62.9025 14.6945V34.5631H57.2195V0.482422H62.5628L70.5743 20.6399V0.531733H76.3068V34.5631Z" fill="#E95F3D"></path>
    <path d="M127.568 0.0493164C121.984 0.0493164 118.098 4.1104 118.098 9.91145V25.1872C118.098 30.9389 121.991 35 127.568 35C133.144 35 137.086 30.9389 137.086 25.1872V9.91145C137.086 4.1104 133.155 0.0493164 127.568 0.0493164ZM127.568 5.50519C128.317 5.48712 129.058 5.66697 129.715 6.02646L123.781 22.8238V9.66842C123.781 6.52662 125.625 5.51224 127.568 5.51224V5.50519ZM127.568 29.5371C126.834 29.5554 126.109 29.3766 125.469 29.0193L131.403 12.2185V25.3809C131.403 28.5227 129.464 29.5371 127.568 29.5371" fill="#E95F3D"></path>
    <path d="M153.375 20.6399L145.36 0.482422H140.016V34.5631H145.699V14.6945L153.76 34.5631H159.104V0.531733H153.375V20.6399Z" fill="#E95F3D"></path>
    <path d="M179.376 5.99465L183 0.482422H162.554V34.5631H174.231L175.293 29.1002H168.237V19.8686H177.083L178.049 14.8882H168.237V5.99465H179.376Z" fill="#E95F3D"></path>
    <path d="M40.2908 0.482422L36.2603 22.5736L32.3749 0.482422H27.3253L23.4859 22.5736L19.4554 0.482422H0L3.62355 5.99465H14.7879L20.3294 34.5631H26.108L29.8483 13.0989L33.5886 34.5631H39.4167L45.9738 0.482422H40.2908Z" fill="#E95F3D"></path>
    <path d="M98.2145 14.8883V25.1872C98.2145 30.9882 94.322 35 88.6956 35C83.1576 35 79.2722 30.9882 79.2722 25.1872V9.86213C79.2722 4.06108 83.1647 0 88.6956 0C94.2264 0 98.1189 3.96598 98.2145 9.6191H92.535C92.535 6.62524 90.932 5.51224 88.7487 5.51224C86.5122 5.51224 84.9588 6.67104 84.9588 10.0911V25.3668C84.9588 28.3642 86.6113 29.523 88.6991 29.523C90.6914 29.523 92.535 28.4663 92.535 25.3668V19.8687H89.0919L90.7055 14.8883H98.2145Z" fill="#E95F3D"></path>
    <path d="M14.2004 14.8882H4.95044L5.91648 19.8686H15.1665L14.2004 14.8882Z" fill="#18B7DF"></path>
    <path d="M16.957 29.1003H7.70703L8.76862 34.5633H18.0186L16.957 29.1003Z" fill="#18B7DF"></path>
  </g>
  <defs>
    <clipPath id="clip0_3301_24378">
      <rect width="183" height="35" fill="white"></rect>
    </clipPath>
  </defs>
</svg>
